<?xml version="1.0" encoding="utf-8"?>
<!-- Generator: Adobe Illustrator 24.0.1, SVG Export Plug-In . SVG Version: 6.00 Build 0)  -->
<svg version="1.1" id="Layer_1" xmlns="http://www.w3.org/2000/svg" xmlns:xlink="http://www.w3.org/1999/xlink" x="0px" y="0px"
	 viewBox="0 0 190.5 379" style="enable-background:new 0 0 190.5 379;" xml:space="preserve">
<style type="text/css">
	.st0{fill:none;stroke:#0E0E30;stroke-width:3;stroke-linecap:round;stroke-miterlimit:10;stroke-dasharray:25.2113,20.1691;}
	.st1{fill:none;stroke:#0E0E30;stroke-width:11;stroke-linecap:round;stroke-miterlimit:10;stroke-dasharray:0.248,20.8305;}
	.st2{fill:none;stroke:#0E0E30;stroke-width:6;stroke-linecap:round;stroke-miterlimit:10;stroke-dasharray:0.2527,21.2306;}
	.st3{fill:none;stroke:#0E0E30;stroke-width:9;stroke-miterlimit:10;stroke-dasharray:58.1218,19.3739;}
	.st4{fill:none;stroke:#0E0E30;stroke-width:6;stroke-miterlimit:10;}
	.st5{fill:none;stroke:#0E0E30;stroke-width:4;stroke-miterlimit:10;}
	.st6{fill:none;stroke:#0E0E30;stroke-width:3;stroke-miterlimit:10;}
	.st7{fill:none;stroke:#0E0E30;stroke-width:7;stroke-miterlimit:10;}
</style>
<g>
	<path class="st0" d="M194,297.83c-59.83,0-108.33-48.5-108.33-108.33S134.17,81.17,194,81.17"/>
</g>
<g>
	<path class="st1" d="M194,347.17c-87.08,0-157.67-70.59-157.67-157.67S106.92,31.83,194,31.83"/>
</g>
<g>
	<path class="st2" d="M194,309.17c-66.09,0-119.67-53.58-119.67-119.67S127.91,69.83,194,69.83"/>
</g>
<g>
	<path class="st3" d="M194,374.5c-102.17,0-185-82.83-185-185s82.83-185,185-185"/>
</g>
<path class="st4" d="M194,317.78c-70.85,0-128.28-57.43-128.28-128.28S123.16,61.22,194,61.22"/>
<path class="st5" d="M194,327.17c-76.03,0-137.67-61.64-137.67-137.67S117.97,51.83,194,51.83"/>
<path class="st6" d="M194,281.53c-50.83,0-92.03-41.2-92.03-92.03s41.2-92.03,92.03-92.03"/>
<path class="st7" d="M194,272.43c-45.8,0-82.93-37.13-82.93-82.93s37.13-82.93,82.93-82.93"/>
</svg>
